#!OML:ASF F:\VICON\USERDATA\INSTALL\rory3\rory3.ASF
:FULLY-SPECIFIED
:DEGREES
81
root -0.013495 17.9646 18.0993 2.08307 0.308508 -4.32664
lowerback 13.7581 0.0978141 3.35403
upperback 1.41961 0.59152 -0.686557
thorax -6.17601 0.19612 -2.73547
lowerneck -6.05405 0.0690818 0.0575828
upperneck -5.70882 0.139728 1.52563
head -0.751922 0.0641904 0.455502
rclavicle 9.14409e-015 -2.06736e-014
rhumerus -42.3775 18.22 -90.861
rradius 94.3603
rwrist -7.2725
rhand -37.4143 36.649
rfingers 7.12502
rthumb -10.4743 6.9299
lclavicle 9.14409e-015 -2.06736e-014
lhumerus -46.5604 -7.50186 89.0531
lradius 112.6
lwrist 35.5974
lhand -34.6201 9.67247
lfingers 7.12502
lthumb -7.7781 39.5094
rfemur 7.57558 -0.230064 28.4681
rtibia 75.9519
rfoot 23.941 -19.2961
rtoes 24.841
lfemur -26.0673 3.33062 -19.2629
ltibia 31.0373
lfoot -1.12926 -9.64589
ltoes -13.2267
82
root -0.0294848 17.8357 18.5554 1.80363 -0.378575 -4.20122
lowerback 14.6988 0.179901 2.64225
upperback 1.57729 0.617695 -0.647226
thorax -6.53559 0.222555 -2.307
lowerneck -6.98325 0.269574 -0.202452
upperneck -5.35497 0.41878 1.71434
head -0.497936 0.214126 0.559903
rclavicle 8.54774e-015 7.15625e-015
rhumerus -42.4991 17.7368 -90.5153
rradius 93.2608
rwrist -7.12904
rhand -37.1984 36.1902
rfingers 7.12502
rthumb -10.266 6.46071
lclavicle 8.54774e-015 7.15625e-015
lhumerus -44.1432 -7.92416 88.9114
lradius 112.785
lwrist 35.7925
lhand -33.3233 10.9501
lfingers 7.12502
lthumb -6.52634 40.8296
rfemur 5.2414 -0.645962 27.4977
rtibia 80.5409
rfoot 22.7596 -20.4361
rtoes 24.9027
lfemur -25.1841 4.00859 -19.5437
ltibia 33.3762
lfoot -4.45623 -8.79748
ltoes -12.7714
83
root -0.0219601 17.733 19.0531 1.65624 -0.650594 -3.74766
lowerback 14.997 0.140733 2.03866
upperback 1.89372 0.46587 -0.732423
thorax -6.37579 0.168337 -2.02565
lowerneck -8.45516 0.38818 -0.775626
upperneck -4.75964 0.618525 2.16596
head -0.0820248 0.335447 0.804848
rclavicle -1.23246e-014 1.35174e-014
rhumerus -42.4312 17.0529 -90.0005
rradius 92.2163
rwrist -6.62955
rhand -37.2992 36.2453
rfingers 7.12502
rthumb -10.3632 6.52068
lclavicle -1.23246e-014 1.35174e-014
lhumerus -41.3933 -8.54267 88.9148
lradius 112.96
lwrist 35.5054
lhand -36.349 12.6854
lfingers 7.12502
lthumb -9.44658 42.4537
rfemur 2.80917 -1.33389 26.0993
rtibia 84.7951
rfoot 21.735 -20.2062
rtoes 25.051
lfemur -24.4624 3.94102 -20.2084
ltibia 35.712
lfoot -7.15716 -8.36214
ltoes -8.07387
84
root -0.0104659 17.6381 19.555 1.38893 -0.501719 -3.11829
lowerback 15.4668 -0.0429121 1.39084
upperback 2.00875 0.112015 -0.890792
thorax -6.53044 0.00910279 -1.75774
lowerneck -9.08079 0.430034 -1.14196
upperneck -4.42639 0.707482 2.57383
head 0.121911 0.393587 1.00149
rclavicle 7.35503e-015 -1.03368e-014
rhumerus -43.0077 16.2248 -89.7208
rradius 91.4211
rwrist -5.58806
rhand -37.3583 35.9558
rfingers 7.12502
rthumb -10.4203 6.23406
lclavicle 7.35503e-015 -1.03368e-014
lhumerus -39.0863 -9.32418 88.9797
lradius 113.183
lwrist 34.8671
lhand -40.6315 17.8972
lfingers 7.12502
lthumb -13.5765 47.4346
rfemur 0.539267 -2.39386 24.4998
rtibia 88.8383
rfoot 20.6538 -19.638
rtoes 25.919
lfemur -23.4848 3.40202 -21.1036
ltibia 37.7936
lfoot -9.65993 -7.33235
ltoes -4.63923
85
root -0.0028159 17.5385 20.0411 1.01752 -0.325955 -2.50154
lowerback 16.0805 -0.230474 0.787166
upperback 2.07751 -0.249913 -1.10976
thorax -6.8078 -0.156093 -1.57429
lowerneck -8.73378 0.469173 -1.07799
upperneck -4.93628 0.762633 2.63997
head -0.0944901 0.415469 1.00834
rclavicle 2.10712e-014 3.97569e-015
rhumerus -43.8269 15.1919 -89.5636
rradius 90.8561
rwrist -4.38671
rhand -37.7522 36.0512
rfingers 7.12502
rthumb -10.8002 6.34888
lclavicle 2.10712e-014 3.97569e-015
lhumerus -36.7553 -10.0741 88.7592
lradius 113.254
lwrist 34.5787
lhand -40.9435 17.4109
lfingers 7.12502
lthumb -13.8772 46.9279
rfemur -1.78916 -3.46873 22.9216
rtibia 92.6932
rfoot 20.2845 -18.5198
rtoes 25.5322
lfemur -22.1439 2.69138 -21.9949
ltibia 39.535
lfoot -12.2062 -5.29411
ltoes -5.13591
86
root -0.00322595 17.436 20.5097 0.714542 -0.112508 -1.73122
lowerback 16.5881 -0.359949 -0.0413176
upperback 2.18336 -0.585191 -1.35151
thorax -6.97881 -0.300302 -1.28824
lowerneck -8.04718 0.522765 -1.07263
upperneck -5.89107 0.851764 2.71878
head -0.503293 0.449889 1.02816
rclavicle -8.94531e-015 7.15625e-015
rhumerus -44.5915 13.9853 -89.2538
rradius 90.3657
rwrist -3.30414
rhand -38.4127 36.351
rfingers 7.12502
rthumb -11.4373 6.68295
lclavicle -8.94531e-015 7.15625e-015
lhumerus -34.2254 -10.9551 88.3882
lradius 113.279
lwrist 34.6007
lhand -37.317 11.8047
lfingers 7.12502
lthumb -10.3804 41.5285
rfemur -4.60018 -4.37818 21.4058
rtibia 96.491
rfoot 20.1505 -17.3607
rtoes 26.5149
lfemur -20.7121 1.88315 -23.0072
ltibia 40.8707
lfoot -14.1819 -3.70963
ltoes -5.89234
87
root -0.00476786 17.3563 20.9692 0.783877 0.308207 -0.423566
lowerback 16.7886 -0.498994 -1.34431
upperback 2.27203 -1.03364 -1.73965
thorax -6.98842 -0.487847 -0.861938
lowerneck -7.8666 0.611405 -1.12545
upperneck -6.5612 0.992873 2.90112
head -0.744441 0.516037 1.09607
rclavicle 4.77083e-015 -1.43125e-014
rhumerus -45.2235 12.7774 -88.8705
rradius 90.0092
rwrist -2.57447
rhand -38.6402 36.6831
rfingers 7.12502
rthumb -11.6567 7.02736
lclavicle 4.77083e-015 -1.43125e-014
lhumerus -31.5363 -11.8451 87.9552
lradius 113.585
lwrist 34.9998
lhand -35.7675 10.3001
lfingers 7.12502
lthumb -8.88547 40.0931
rfemur -8.16965 -5.50875 19.2356
rtibia 100.097
rfoot 20.1069 -15.9792
rtoes 28.2413
lfemur -19.4477 0.535228 -24.5642
ltibia 41.7218
lfoot -15.9296 -2.37426
ltoes -6.79282
88
root -0.00217969 17.2894 21.4291 0.969533 0.362311 1.04955
lowerback 16.8553 -0.553461 -2.76143
upperback 2.45641 -1.39154 -2.18789
thorax -6.80713 -0.632313 -0.457197
lowerneck -8.33779 0.718487 -1.1152
upperneck -7.06222 1.14789 2.91852
head -0.827846 0.593618 1.10448
rclavicle -8.54774e-015 -1.11319e-014
rhumerus -45.4802 11.6727 -88.4671
rradius 89.6189
rwrist -2.29528
rhand -38.8611 37.0616
rfingers 7.12502
rthumb -11.8698 7.41802
lclavicle -8.54774e-015 -1.11319e-014
lhumerus -28.5265 -12.7014 87.4317
lradius 113.829
lwrist 35.2101
lhand -36.2742 11.2578
lfingers 7.12502
lthumb -9.37434 41.0293
rfemur -11.6904 -6.29784 16.8918
rtibia 103.198
rfoot 19.5745 -14.5094
rtoes 29.488
lfemur -17.9799 -0.680563 -26.2802
ltibia 42.2278
lfoot -17.568 -0.915224
ltoes -9.10848
89
root 0.00128567 17.2327 21.8954 1.0442 -0.153314 1.65212
lowerback 16.8718 -0.48057 -3.45267
upperback 2.52597 -1.4296 -2.33037
thorax -6.7278 -0.637139 -0.209832
lowerneck -8.13687 0.780521 -1.14798
upperneck -7.77441 1.24039 2.75661
head -1.08448 0.63513 1.06025
rclavicle 3.57812e-015 1.59028e-015
rhumerus -46.148 10.7006 -88.0122
rradius 89.3842
rwrist -2.04842
rhand -38.89 36.3297
rfingers 7.12502
rthumb -11.8976 6.68773
lclavicle 3.57812e-015 1.59028e-015
lhumerus -26.0194 -13.4116 87.1258
lradius 113.799
lwrist 34.7389
lhand -36.6324 11.1827
lfingers 7.12502
lthumb -9.71998 40.9384
rfemur -15.0044 -6.15 16.0186
rtibia 105.65
rfoot 18.5586 -13.9238
rtoes 27.8128
lfemur -16.1687 -1.30215 -27.0255
ltibia 42.4712
lfoot -18.8958 -0.0458442
ltoes -10.6168
90
root 0.00893881 17.1965 22.3615 1.25658 -0.844178 1.30376
lowerback 16.7905 -0.429172 -3.26809
upperback 2.39486 -1.31711 -2.14367
thorax -6.82591 -0.583264 -0.140371
lowerneck -7.54376 0.87792 -1.11469
upperneck -8.24173 1.35606 2.3751
head -1.3272 0.687848 0.934489
rclavicle 7.15625e-015 -8.74653e-015
rhumerus -47.1685 9.83285 -87.5205
rradius 89.3191
rwrist -1.90496
rhand -38.7115 35.2032
rfingers 7.12502
rthumb -11.7255 5.55137
lclavicle 7.15625e-015 -8.74653e-015
lhumerus -23.9794 -13.9487 86.9178
lradius 113.746
lwrist 34.1453
lhand -36.1531 10.8891
lfingers 7.12502
lthumb -9.25751 40.6658
rfemur -18.5303 -5.5901 16.6265
rtibia 107.469
rfoot 17.491 -13.5713
rtoes 27.1363
lfemur -14.5274 -1.54986 -26.7769
ltibia 42.5281
lfoot -19.8662 0.0123714
ltoes -10.5707
91
root 0.0175534 17.1744 22.8303 1.55423 -1.48133 1.0442
lowerback 16.7303 -0.442764 -3.12923
upperback 2.1907 -1.30483 -1.99815
thorax -7.01228 -0.57571 -0.0664576
lowerneck -7.20312 1.05279 -1.0452
upperneck -8.33993 1.56837 2.05439
head -1.41413 0.792117 0.822836
rclavicle 6.95746e-015 4.77083e-015
rhumerus -48.1467 9.11779 -87.1561
rradius 89.3894
rwrist -2.06755
rhand -38.8357 35.9195
rfingers 7.12502
rthumb -11.8452 6.2745
lclavicle 6.95746e-015 4.77083e-015
lhumerus -22.1084 -14.3817 86.6721
lradius 113.864
lwrist 33.5622
lhand -35.496 11.0008
lfingers 7.12502
lthumb -8.62342 40.8047
rfemur -22.1673 -4.9556 17.2521
rtibia 108.764
rfoot 16.8034 -13.45
rtoes 25.9284
lfemur -12.9207 -1.64523 -26.6348
ltibia 42.3445
lfoot -20.5731 0.167588
ltoes -10.7476
92
root 0.0186377 17.1669 23.3206 1.62768 -1.99837 0.969038
lowerback 16.7182 -0.554391 -3.12418
upperback 2.00085 -1.45671 -1.97722
thorax -7.20673 -0.645572 -0.0126301
lowerneck -6.69186 1.28332 -1.01854
upperneck -8.46794 1.87056 1.99903
head -1.54382 0.939168 0.800781
rclavicle 4.96962e-015 2.22639e-014
rhumerus -49.2481 8.58232 -87.0449
rradius 89.6262
rwrist -2.32546
rhand -38.7817 37.0288
rfingers 7.12502
rthumb -11.7932 7.3808
lclavicle 4.96962e-015 2.22639e-014
lhumerus -20.6821 -14.7346 86.2985
lradius 114.137
lwrist 32.964
lhand -35.1644 11.3149
lfingers 7.12502
lthumb -8.30345 41.1317
rfemur -25.2641 -4.26888 17.7266
rtibia 109.426
rfoot 16.7432 -13.7918
rtoes 21.6859
lfemur -10.864 -1.51668 -26.6909
ltibia 41.792
lfoot -20.6577 0.219135
ltoes -11.9531
